<svg width="778" height="236" viewBox="0 0 778 236" fill="none" xmlns="http://www.w3.org/2000/svg">
<path d="M115.5 181.75L0.250001 137V110L115.5 65.25V91.25L10 130.75V116.25L115.5 155.75V181.75ZM154.961 211V36H181.711L258.211 163.75H244.211L319.461 36H346.211L346.461 211H315.711L315.461 84.25H321.961L257.961 191H243.461L178.461 84.25H185.961V211H154.961ZM393.73 211V36H465.73C481.23 36 494.48 38.5 505.48 43.5C516.647 48.5 525.23 55.6667 531.23 65C537.23 74.3333 540.23 85.4167 540.23 98.25C540.23 111.083 537.23 122.167 531.23 131.5C525.23 140.667 516.647 147.75 505.48 152.75C494.48 157.583 481.23 160 465.73 160H411.73L426.23 145.25V211H393.73ZM508.23 211L463.98 147.5H498.73L543.23 211H508.23ZM426.23 148.75L411.73 133.25H464.23C478.564 133.25 489.314 130.167 496.48 124C503.814 117.833 507.48 109.25 507.48 98.25C507.48 87.0833 503.814 78.5 496.48 72.5C489.314 66.5 478.564 63.5 464.23 63.5H411.73L426.23 47.5V148.75ZM662.115 181.75V155.75L767.615 116.25V130.75L662.115 91.25V65.25L777.365 110V137L662.115 181.75Z" fill="white"/>
<path d="M545.592 236L628.092 0.499983H656.092L573.592 236H545.592Z" fill="#E91E63"/>
</svg>
